<svg width="128" height="128" version="1.0" xmlns="http://www.w3.org/2000/svg">
	<path d="m1.4383e-4 64v-64h128v63.543c0 34.944-0.0548 63.524-0.12801 63.524-0.0914-0.0182-0.32915-0.0182-0.56688 0-0.32915 0.0182-0.40228 0.10973-0.32915 0.47543l0.0914 0.45716h-127.07zm40.997 42.148c0-10.862-0.01828-20.06-0.01828-20.425l-0.01829-0.69486h-38.949v40.96l19.492-0.0366 19.511-0.0548zm42.021-0.64001v-20.481h-40.047v40.96h40.047zm42.973 0v-20.481h-40.961v40.96h40.961zm-85.013-22.711c0.01828-0.31086 0.01828-39.517 0-39.68-0.01828-0.09143-8.7775-0.14628-19.492-0.14628h-19.476v40.046h19.476c15.453 0 19.476-0.05486 19.492-0.21943zm42.04-19.804v-20.023h-40.047v40.046h40.047zm42.973 0v-20.023h-40.961v40.046h40.961zm-85.087-22.108c0.07314-0.073141 0.14628-36.499 0.07314-38.547-0.018281-0.31086-1.0789-0.32915-19.492-0.32915h-19.476v19.437c0 10.697 0.036573 19.492 0.073145 19.53 0.128 0.128 38.693 0.03657 38.821-0.09143zm41.711 0.09143 0.4023-0.01828v-38.948h-40.047v19.437c0 10.697 0.03657 19.492 0.07315 19.53 0.05486 0.05486 37.633 0.05486 39.572 0zm43.339-19.475 0.0366-19.492h-40.961v19.456c0 18.084 0.01829 19.475 0.31087 19.53 0.16458 0.03657 9.3626 0.03657 20.426 0.03657l20.133-0.0183z"/>
	<path d="m29.15 93.386a14.5 14.5 0 0 1 5.4696 19.755 14.5 14.5 0 0 1-19.75 5.4855 14.5 14.5 0 0 1-5.5015-19.746 14.5 14.5 0 0 1 19.741-5.5174"/>
	<path d="m71.15 93.386a14.5 14.5 0 0 1 5.4696 19.755 14.5 14.5 0 0 1-19.75 5.4855 14.5 14.5 0 0 1-5.5015-19.746 14.5 14.5 0 0 1 19.741-5.5174"/>
	<path d="m113.15 93.386a14.5 14.5 0 0 1 5.4696 19.755 14.5 14.5 0 0 1-19.75 5.4855 14.5 14.5 0 0 1-5.5015-19.746 14.5 14.5 0 0 1 19.741-5.5174"/>
	<path d="m112.23 51.386a14.5 14.5 0 0 1 5.4696 19.755 14.5 14.5 0 0 1-19.75 5.4855 14.5 14.5 0 0 1-5.5015-19.746 14.5 14.5 0 0 1 19.741-5.5174"/>
	<path d="m71.15 9.3857a14.5 14.5 0 0 1 5.4696 19.755 14.5 14.5 0 0 1-19.75 5.4855 14.5 14.5 0 0 1-5.5015-19.746 14.5 14.5 0 0 1 19.741-5.5174"/>
</svg>
