<svg version="1.1" viewBox="0 0 21.333 21.333" xmlns="http://www.w3.org/2000/svg">
	<defs>
		<linearGradient id="a" x1="30.06" x2="225.94" y1="30.06" y2="225.94" gradientTransform="scale(.083332)" gradientUnits="userSpaceOnUse">
			<stop stop-color="#E3702D" offset="0"/>
			<stop stop-color="#EA7D31" offset=".1071"/>
			<stop stop-color="#F69537" offset=".3503"/>
			<stop stop-color="#FB9E3A" offset=".5"/>
			<stop stop-color="#EA7C31" offset=".7016"/>
			<stop stop-color="#DE642B" offset=".8866"/>
			<stop stop-color="#D95B29" offset="1"/>
		</linearGradient>
	</defs>
	<path d="m4.5832 0h12.167c2.5391 0 4.5832 2.0441 4.5832 4.5832v12.167c0 2.5391-2.0441 4.5832-4.5832 4.5832h-12.167c-2.5391 0-4.5832-2.0441-4.5832-4.5832v-12.167c0-2.5391 2.0441-4.5832 4.5832-4.5832z" fill="#cc5d15"/>
	<path d="m4.5831 0.41665h12.166c2.3082 0 4.1665 1.8583 4.1665 4.1665v12.166c0 2.3082-1.8583 4.1665-4.1665 4.1665h-12.166c-2.3082 0-4.1665-1.8583-4.1665-4.1665v-12.166c0-2.3082 1.8583-4.1665 4.1665-4.1665z" fill="#f49c52"/>
	<path d="m4.7498 0.83332h11.833c2.1697 0 3.9165 1.7468 3.9165 3.9165v11.833c0 2.1697-1.7468 3.9165-3.9165 3.9165h-11.833c-2.1697 0-3.9165-1.7468-3.9165-3.9165v-11.833c0-2.1697 1.7468-3.9165 3.9165-3.9165z" fill="url(#a)"/>
	<g fill="#fff">
		<path d="m7.6662 15.749a1.9999 1.9999 0 0 1-1.9999 1.9999 1.9999 1.9999 0 0 1-1.9999-1.9999 1.9999 1.9999 0 0 1 1.9999-1.9999 1.9999 1.9999 0 0 1 1.9999 1.9999z"/>
		<path d="m13.333 17.749h-2.8333a6.8333 6.8333 0 0 0-6.8333-6.8333v-2.8333a9.6662 9.6662 0 0 1 9.6662 9.6662z"/>
		<path d="m15.333 17.749a11.666 11.666 0 0 0-11.666-11.666v-2.9166a14.583 14.583 0 0 1 14.583 14.583z"/>
	</g>
</svg>
